HIERARCHY
ROOT joint_0
{
	OFFSET 0.000000 0.000000 0.000000
	CHANNELS 6 Xposition Yposition Zposition Zrotation Yrotation Xrotation 
	JOINT joint_1
	{
		OFFSET 0.511002 1.944000 108.288940
		CHANNELS 3 Zrotation Yrotation Xrotation
		JOINT joint_2
		{
			OFFSET -9.074005 1.512993 98.440063
			CHANNELS 3 Zrotation Yrotation Xrotation
			JOINT joint_3
			{
				OFFSET -8.590996 1.815002 98.366943
				CHANNELS 3 Zrotation Yrotation Xrotation
				JOINT joint_4
				{
					OFFSET 2.489998 3.531998 136.462036
					CHANNELS 3 Zrotation Yrotation Xrotation
					JOINT joint_5
					{
						OFFSET 22.708000 2.955002 80.357056
						CHANNELS 3 Zrotation Yrotation Xrotation
						End Site
						{
							OFFSET 0.000000 0.000000 0.000000
						}
					}
				}
				JOINT joint_6
				{
					OFFSET 2.860001 -27.684998 77.234009
					CHANNELS 3 Zrotation Yrotation Xrotation
					JOINT joint_7
					{
						OFFSET 5.449997 -131.244003 -18.851929
						CHANNELS 3 Zrotation Yrotation Xrotation
						JOINT joint_8
						{
							OFFSET 35.757000 -24.661995 -264.074097
							CHANNELS 3 Zrotation Yrotation Xrotation
							JOINT joint_9
							{
								OFFSET 49.392001 -1.747002 -239.960938
								CHANNELS 3 Zrotation Yrotation Xrotation
								End Site
								{
									OFFSET 0.000000 0.000000 0.000000
								}
							}
						}
					}
				}
				JOINT joint_10
				{
					OFFSET -0.127998 31.625000 75.753052
					CHANNELS 3 Zrotation Yrotation Xrotation
					JOINT joint_11
					{
						OFFSET -5.618004 131.132996 -19.557007
						CHANNELS 3 Zrotation Yrotation Xrotation
						JOINT joint_12
						{
							OFFSET 46.488998 30.127991 -261.826050
							CHANNELS 3 Zrotation Yrotation Xrotation
							JOINT joint_13
							{
								OFFSET 66.021003 0.474030 -235.934937
								CHANNELS 3 Zrotation Yrotation Xrotation
								End Site
								{
									OFFSET 0.000000 0.000000 0.000000
								}
							}
						}
					}
				}
			}
		}
	}
	JOINT joint_14
	{
		OFFSET 15.887001 -78.871004 -94.561035
		CHANNELS 3 Zrotation Yrotation Xrotation
		JOINT joint_15
		{
			OFFSET -4.133003 6.714001 -473.615967
			CHANNELS 3 Zrotation Yrotation Xrotation
			JOINT joint_16
			{
				OFFSET -19.541000 5.340000 -399.613007
				CHANNELS 3 Zrotation Yrotation Xrotation
				JOINT joint_17
				{
					OFFSET 164.317001 41.657999 -73.195000
					CHANNELS 3 Zrotation Yrotation Xrotation
					End Site
					{
						OFFSET 0.000000 0.000000 0.000000
					}
				}
			}
		}
	}
	JOINT joint_18
	{
		OFFSET 6.513000 77.960991 -96.406982
		CHANNELS 3 Zrotation Yrotation Xrotation
		JOINT joint_19
		{
			OFFSET -10.660004 -8.518997 -473.485016
			CHANNELS 3 Zrotation Yrotation Xrotation
			JOINT joint_20
			{
				OFFSET -36.967995 -11.098999 -398.260010
				CHANNELS 3 Zrotation Yrotation Xrotation
				JOINT joint_21
				{
					OFFSET 166.067997 30.363998 -74.785000
					CHANNELS 3 Zrotation Yrotation Xrotation
					End Site
					{
						OFFSET 0.000000 0.000000 0.000000
					}
				}
			}
		}
	}
}
MOTION
Frames: 13
Frame Time: 0.016667
-88.844000 97.793000 1058.711060 -3.030516 2.892642 0.401396 1.072852 -1.830277 0.715053 0.967176 0.200674 -0.142051 0.994212 -0.246892 0.064461 -0.120430 -0.776212 0.523241 0.000000 0.000000 0.000000 3.616512 -1.121190 0.550348 -0.503628 -0.662638 -2.652996 -0.496154 -0.332071 -2.397260 0.000000 0.000000 0.000000 -0.612648 -1.258118 -1.329061 -0.059519 -1.156595 -0.877072 1.111697 1.553539 3.963237 0.000000 0.000000 0.000000 -2.068625 -1.383043 -2.555724 -2.082845 0.091114 -0.257034 -2.110607 -2.239332 -0.367570 0.000000 0.000000 0.000000 -2.470004 -3.465286 2.597672 -2.484538 0.799133 -1.164897 -2.468996 -0.526932 -1.015946 0.000000 0.000000 0.000000 
-89.138000 97.318000 1058.711060 -3.047653 3.188360 0.409105 1.161027 -1.817013 0.547165 1.078161 0.136417 -0.071986 1.092305 -0.239641 0.004622 -0.125942 -0.718156 0.535085 0.000000 0.000000 0.000000 3.207886 -1.208412 1.146096 -0.536399 -0.848397 -3.140125 -0.495254 -0.156968 -2.387737 0.000000 0.000000 0.000000 0.138131 -1.478208 -1.509794 -0.139536 -1.486572 -0.724128 1.069035 1.978974 3.827767 0.000000 0.000000 0.000000 -2.073465 -1.725041 -2.508984 -2.082462 0.091488 -0.273206 -2.110935 -2.233129 -0.369282 0.000000 0.000000 0.000000 -2.452477 -3.809121 2.638293 -2.476353 0.810662 -1.182361 -2.462565 -0.534388 -1.011607 0.000000 0.000000 0.000000 
-88.281000 96.954000 1058.853030 -3.023661 3.645975 0.427443 1.243427 -1.660119 0.418987 1.179305 0.090148 -0.033163 1.185174 -0.203700 -0.033089 -0.125603 -1.203035 0.595122 0.000000 0.000000 0.000000 2.894943 -1.078559 1.055510 -0.548048 -0.752125 -3.038317 -0.440035 -0.578559 -2.140184 0.000000 0.000000 0.000000 0.542053 -1.456902 -1.401968 -0.160256 -1.533991 -0.737336 0.950492 1.680940 3.410562 0.000000 0.000000 0.000000 -2.085405 -2.136490 -2.503498 -2.090600 0.011993 -0.244432 -2.115595 -2.197091 -0.380365 0.000000 0.000000 0.000000 -2.448413 -4.210974 2.665899 -2.480833 0.701797 -1.197366 -2.471349 -0.501744 -1.021415 0.000000 0.000000 0.000000 
-85.772000 96.807000 1059.230960 -2.929001 4.298446 0.467002 1.324576 -1.182357 0.375101 1.270743 0.065080 -0.048388 1.276729 -0.134299 -0.029197 -0.119908 -2.589677 0.748581 0.000000 0.000000 0.000000 2.613385 -0.533609 -0.344226 -0.536396 -0.136708 -1.783528 -0.289281 -2.285104 -1.460241 0.000000 0.000000 0.000000 0.274650 -0.994583 -0.785411 -0.052495 -1.055531 -1.063676 0.703306 -0.071462 2.524690 0.000000 0.000000 0.000000 -2.105305 -2.575911 -2.572547 -2.109777 -0.250297 -0.143202 -2.123174 -2.071859 -0.415157 0.000000 0.000000 0.000000 -2.471434 -4.627301 2.662665 -2.508522 0.356844 -1.199800 -2.508243 -0.381178 -1.059870 0.000000 0.000000 0.000000 
-82.112000 96.772000 1059.750980 -2.792615 5.091266 0.520924 1.406856 -0.509587 0.375903 1.357809 0.050266 -0.084649 1.367827 -0.073374 -0.008156 -0.097604 -4.555952 0.902693 0.000000 0.000000 0.000000 2.279958 0.234327 -2.263669 -0.541811 0.742908 -0.094203 -0.095507 -4.579650 -0.532250 0.000000 0.000000 0.000000 -0.326452 -0.285186 -0.020714 0.140910 -0.274539 -1.417987 0.377300 -2.558681 1.377034 0.000000 0.000000 0.000000 -2.133313 -3.059081 -2.685738 -2.137133 -0.597713 0.002780 -2.135112 -1.906964 -0.461750 0.000000 0.000000 0.000000 -2.507277 -5.075381 2.643681 -2.548108 -0.115156 -1.199188 -2.561213 -0.206309 -1.115319 0.000000 0.000000 0.000000 
-77.772000 96.746000 1060.207030 -2.666606 5.957384 0.573393 1.450965 0.023789 0.363806 1.406347 0.036048 -0.099010 1.417687 -0.036456 -0.002177 -0.041548 -6.575407 0.921333 0.000000 0.000000 0.000000 2.231267 0.868100 -3.514700 -0.566104 1.486820 0.930288 0.057443 -6.005225 0.245763 0.000000 0.000000 0.000000 -0.842275 0.361646 0.431104 0.325805 0.459123 -1.401151 0.069081 -4.393866 0.292685 0.000000 0.000000 0.000000 -2.169665 -3.649381 -2.799098 -2.168935 -0.796327 0.153437 -2.155356 -1.838275 -0.487530 0.000000 0.000000 0.000000 -2.530188 -5.607879 2.633876 -2.578796 -0.491044 -1.221075 -2.605968 -0.059011 -1.161854 0.000000 0.000000 0.000000 
-72.683000 96.713000 1060.571040 -2.603380 7.002429 0.600954 1.424922 0.207858 0.327043 1.386008 0.021857 -0.080905 1.393706 -0.002221 -0.019914 0.072900 -8.699403 0.729604 0.000000 0.000000 0.000000 2.941523 1.259159 -3.662547 -0.592692 1.994336 0.836845 0.169928 -5.877635 0.836780 0.000000 0.000000 0.000000 -1.187743 0.883421 0.450505 0.458969 1.076738 -0.808209 -0.250578 -5.007358 -0.862952 0.000000 0.000000 0.000000 -2.204375 -4.470102 -2.896743 -2.194963 -0.830128 0.336778 -2.172243 -1.868417 -0.486624 0.000000 0.000000 0.000000 -2.523969 -6.289398 2.672399 -2.583730 -0.864102 -1.280661 -2.631011 0.128396 -1.206603 0.000000 0.000000 0.000000 
-66.913000 96.689000 1060.870000 -2.550215 8.125407 0.625822 1.357073 0.243324 0.271778 1.325832 0.010806 -0.047347 1.328230 0.017520 -0.043927 0.215508 -10.880741 0.429735 0.000000 0.000000 0.000000 4.109263 1.530234 -3.267828 -0.614700 2.390070 0.203820 0.258717 -4.927716 1.290911 0.000000 0.000000 0.000000 -1.518635 1.347632 0.204256 0.583485 1.657389 0.106448 -0.552740 -5.009918 -1.974423 0.000000 0.000000 0.000000 -2.246357 -5.403403 -2.993262 -2.225558 -0.714322 0.525617 -2.196728 -1.987744 -0.466305 0.000000 0.000000 0.000000 -2.504660 -7.060645 2.719389 -2.580047 -1.141008 -1.362600 -2.647567 0.294301 -1.243387 0.000000 0.000000 0.000000 
-61.130000 96.623000 1060.979000 -2.394694 8.972363 0.702867 1.290614 0.351454 0.168641 1.273145 0.004331 -0.009172 1.270176 0.021514 -0.067340 0.319236 -12.438386 0.184849 0.000000 0.000000 0.000000 5.046789 1.674558 -2.847098 -0.620344 2.626151 -0.307293 0.257388 -3.875298 1.272302 0.000000 0.000000 0.000000 -1.785534 1.634997 -0.126415 0.703043 2.048525 0.887961 -0.662265 -4.780039 -2.387574 0.000000 0.000000 0.000000 -2.326134 -6.176940 -3.093251 -2.290271 -0.256617 0.603014 -2.268879 -2.331808 -0.410155 0.000000 0.000000 0.000000 -2.499989 -7.817410 2.680279 -2.602624 -0.808568 -1.444862 -2.666077 0.137388 -1.222158 0.000000 0.000000 0.000000 
-55.404000 96.503000 1060.738040 -2.060209 9.403157 0.880371 1.219756 0.569579 -0.020896 1.226589 0.014740 0.033627 1.217883 0.037814 -0.090208 0.356426 -13.058892 0.069426 0.000000 0.000000 0.000000 5.503568 1.633132 -2.568200 -0.592660 2.628720 -0.374964 0.080128 -2.816992 0.377287 0.000000 0.000000 0.000000 -1.943941 1.654552 -0.456333 0.809620 2.138317 1.306981 -0.452105 -4.316218 -1.635809 0.000000 0.000000 0.000000 -2.473145 -6.621252 -3.228840 -2.419606 0.530092 0.540754 -2.422929 -2.943152 -0.322516 0.000000 0.000000 0.000000 -2.517335 -8.557446 2.472330 -2.664447 0.449167 -1.497434 -2.687626 -0.535855 -1.107972 0.000000 0.000000 0.000000 
-49.666000 96.340000 1060.305050 -1.627431 9.568233 1.098685 1.151086 0.832044 -0.231851 1.185327 0.024990 0.070390 1.170357 0.088303 -0.116264 0.359767 -13.084882 0.014537 0.000000 0.000000 0.000000 5.717636 1.446414 -2.297215 -0.555842 2.455488 -0.307710 -0.207583 -1.624634 -1.008675 0.000000 0.000000 0.000000 -2.011886 1.485689 -0.801203 0.905688 2.017699 1.542503 -0.047924 -3.630493 -0.189996 0.000000 0.000000 0.000000 -2.654836 -6.919651 -3.356242 -2.581029 1.658286 0.366945 -2.627721 -3.752204 -0.206969 0.000000 0.000000 0.000000 -2.543393 -9.292811 2.184448 -2.747443 2.312393 -1.529841 -2.718676 -1.470155 -0.949742 0.000000 0.000000 0.000000 
-44.373000 96.125000 1060.036990 -1.217557 9.559275 1.262604 1.144992 1.184144 -0.355554 1.196880 0.000313 0.078355 1.176959 0.164881 -0.142291 0.353603 -12.801085 -0.037781 0.000000 0.000000 0.000000 5.688856 1.261807 -2.129336 -0.542382 2.254742 -0.345681 -0.443327 -0.677060 -2.088394 0.000000 0.000000 0.000000 -1.997175 1.267025 -1.080202 0.992906 1.827551 1.716705 0.338231 -3.089936 1.186809 0.000000 0.000000 0.000000 -2.810051 -7.340380 -3.382452 -2.709592 3.362434 0.054842 -2.830781 -4.713721 -0.051426 0.000000 0.000000 0.000000 -2.577408 -9.955365 1.970219 -2.840607 4.348824 -1.586836 -2.773480 -2.321476 -0.816368 0.000000 0.000000 0.000000 
-40.105000 95.749000 1060.008060 -0.851325 9.401166 1.366139 1.239307 1.699705 -0.419711 1.305180 -0.084745 0.079148 1.279330 0.279145 -0.164917 0.343296 -12.241773 -0.103279 0.000000 0.000000 0.000000 5.324275 1.110204 -2.169580 -0.537698 2.044781 -0.548268 -0.541067 -0.104460 -2.513666 0.000000 0.000000 0.000000 -1.857135 0.978290 -1.230057 1.049399 1.533721 1.811024 0.642855 -2.779459 2.280404 0.000000 0.000000 0.000000 -2.942762 -8.077106 -3.268695 -2.804412 5.908499 -0.448259 -3.056733 -5.869788 0.145046 0.000000 0.000000 0.000000 -2.619665 -10.644598 1.860596 -2.947018 6.621809 -1.700202 -2.861068 -3.021905 -0.723789 0.000000 0.000000 0.000000 
